<?xml version="1.0" encoding="UTF-8"?>
<svg version="1.1" viewBox="0 0 2048 2048" width="1280" height="1280" xmlns="http://www.w3.org/2000/svg">
<path transform="translate(673,119)" d="m0 0h17l22 3 19 5 21 10 17 12 15 14 8 10 8 13 8 16 6 18 3 14 1 7v28l-5 24-5 12-1 3 4 6 11 13 14 14 8 7 138 138 6 5 7 8 22 22 8 5 31-31h2l2-4h2l2-4 113-113 5-6 8-7 25-25 8-7 12-12 3-6-8-27-3-17v-18l4-24 5-16 8-18 10-16 10-13 9-9 13-10 15-9 15-7 17-5 22-3h19l21 3 16 4 18 8 12 7 12 9 13 12 10 13 8 13 8 16 6 20 3 21v24l-3 18-7 21-10 20-8 11-11 13-10 9-11 8-14 8-15 6-27 7-6 1h-30l-18-3-16-4-9-1-8 7-134 134-11 9-11 11 52 1 331 1 27 1 26 3 20 5 22 8 22 11 17 11 11 8 14 12 16 16 11 14 8 11 8 14 12 23 10 28 3 4 6 1h34l25 3 20 5 15 6 11 6 13 9 11 9 12 13 10 15 8 15 8 24 2 13 1 59v54l-1 252-2 21-4 16-6 16-9 16-8 11-11 12-13 12-13 8-16 8-16 5-22 4-20 2-36 1-8 23-8 18-14 26-7 11-8 10-9 9-1 3 9 3 16 8 11 6 13 8 12 8 16 12 14 11 11 10 8 7 21 21 18 22 10 14 10 15 12 20 12 23 10 23 9 25 8 28 7 33 4 27 1 12v21l-2 12-4 9-6 10-9 10-8 7-10 3-12 2-26 1h-1674l-20-2-10-4-9-7-7-7-6-10-5-13-1-5v-34l3-25 8-39 8-27 11-29 9-20 8-16 14-24 9-14 12-17 11-14 11-12 9-10 21-21 11-9 14-11 17-12 16-10 14-8 23-10-1-4-11-14-12-19-9-17-11-24-7-21-2-2-43-1-21-2-15-3-15-5-17-9-14-10-21-21-10-15-7-12-6-15-5-17-2-13-1-12-1-106v-53l1-186 1-17 3-15 9-24 8-14 12-17 7-8 8-7 13-10 13-8 13-6 12-4 21-4 23-2 28 1 6-2 4-8 9-24 8-16 7-13 10-15 14-17 13-14 11-9 13-11 15-10 23-12 25-10 16-4 21-3 10-1 27-1 291-1h91l-11-12-8-8-4-3v-2l-4-2-7-8-97-97v-2h-2l-7-8-14-14-9-6-4-1-32 8-13 2h-21l-16-2-18-5-13-5-13-7-13-10-10-9-7-7-10-13-11-19-7-17-5-19-2-17v-14l3-21 5-18 5-13 8-15 10-13 9-10 10-9 14-10 12-7 18-7 16-4zm-1 103-8 4-10 10-4 8-2 12 3 12 8 11 10 8 5 2h14l12-6 6-5 7-10 3-7-1-11-8-16-8-8-10-4zm683 0-10 5-8 9-5 9-1 2v13l5 10 11 12 9 6 3 1h10l11-4 9-6 6-9 3-9v-7l-4-13-6-10-6-5-8-3-4-1zm-215 323m-236 1m-368 101-43 2-14 2-16 5-17 9-12 9-7 6v2h-2l-9 11-7 10-8 16-3 8-2 22-1 44v473l1 35 3 21 4 12 10 16 10 11 5 5 9 8 15 10 10 5 14 4 14 2 27 1 64 1 309 1h226l222-1 85-1 127-1 19-2 15-4 16-8 12-8 10-9 10-11 10-17 4-10 2-9 1-9 1-24 1-516-1-25-3-19-5-13-9-15-8-10-12-12-13-9-12-7-17-6-16-3-12-1-39-1h-463l-4 3h-24l-8-2-130-1zm-260 169-21 3-17 5-13 7-2 3-1 5-1 32-1 224v66l1 32 2 16 3 6 9 6 13 5 13 3 9 1h16l1-1v-182l1-157v-59l-1-12-1-3zm1486 1-3 3-1 374 1 32 1 4h22l18-4 17-8 5-4 2-6 1-23v-335l-2-12-5-8-5-4-8-4-11-3-18-2zm-1267 685-40 2-20 3-33 10-21 9-25 13-13 9-12 9-13 11-8 7-18 18-9 11-13 18-12 20-12 23-12 29-11 33-1 5v8l3 1h1544l50-1-3-9-13-40-11-25-8-17-14-24-12-17-9-11-11-12-17-17-14-11-14-10-13-8-14-8-19-9-19-7-17-5-23-5-14-2-21-1z" fill="#313131"/>
<path transform="translate(673,119)" d="m0 0h17l22 3 19 5 21 10 17 12 15 14 8 10 8 13 8 16 6 18 3 14 1 7v28l-5 24-5 12-1 3 2 5-9 14-13 17-14 15-11 10-17 13-3 2-6-2-32 8-13 2h-21l-16-2-18-5-13-5-13-7-13-10-10-9-7-7-10-13-11-19-7-17-5-19-2-17v-14l3-21 5-18 5-13 8-15 10-13 9-10 10-9 14-10 12-7 18-7 16-4zm-1 103-8 4-10 10-4 8-2 12 3 12 8 11 10 8 5 2h14l12-6 6-5 7-10 3-7-1-11-8-16-8-8-10-4z" fill="#959595"/>
<path transform="translate(1355,119)" d="m0 0h19l21 3 16 4 18 8 12 7 12 9 13 12 10 13 8 13 8 16 6 20 3 21v24l-3 18-7 21-10 20-8 11-11 13-10 9-11 8-14 8-15 6-27 7-6 1h-30l-18-3-16-4-10-1-9-7-13-9-10-9-10-10-11-14-9-12-5-7-1-8-6-19-3-13-1-8v-18l4-24 5-16 8-18 10-16 10-13 9-9 13-10 15-9 15-7 17-5zm0 103-10 5-8 9-5 9-1 2v13l5 10 11 12 9 6 3 1h10l11-4 9-6 6-9 3-9v-7l-4-13-6-10-6-5-8-3-4-1z" fill="#959595"/>
<path transform="translate(886,1143)" d="m0 0h255l20 2 12 4 10 7 8 8 7 12 4 14-2 15-4 9-6 9-9 10-9 7-11 3-17 1-58 1h-191l-16-2-7-4-5-4-7-8-9-12-5-10-2-10 1-10 5-12 7-9 11-12 12-7z" fill="#959595"/>
<path transform="translate(1318,887)" d="m0 0 11 1 13 4 12 8 10 11 7 14 3 14 1 16v12l-2 17-4 12-6 11-11 13-13 8-8 3h-17l-12-4-10-7-10-10-8-16-4-16-1-8v-27l3-15 6-14 7-9 7-7 14-8z" fill="#959595"/>
<path transform="translate(715,888)" d="m0 0h16l10 3 13 7 11 11 8 16 4 16 1 9v19l-3 18-5 12-8 12-6 7-13 9-11 4h-14l-10-3-11-6-11-11-8-14-4-13-2-13v-24l2-17 5-13 6-9 9-10 10-6z" fill="#959595"/>
</svg>
